<?xml version="1.0" encoding="UTF-8"?>
<svg width="256px" height="257px" viewBox="0 0 256 257" version="1.1" xmlns="http://www.w3.org/2000/svg" xmlns:xlink="http://www.w3.org/1999/xlink">
    <!-- Generator: Sketch 59.1 (86144) - https://sketch.com -->
    <title>Microsoft_Edge_logo_(2019)</title>
    <desc>Created with Sketch.</desc>
    <g id="Page-1" stroke="none" stroke-width="1" fill="none" fill-rule="evenodd">
        <g id="Microsoft_Edge_logo_(2019)" transform="translate(-1.000000, 0.000000)" fill-rule="nonzero">
            <path d="M232.05,190.54 C228.636783,192.325079 225.116774,193.898062 221.51,195.25 C210.029457,199.545697 197.867867,201.734106 185.61,201.71 C138.29,201.71 97.07,169.16 97.07,127.39 C97.1933554,115.982019 103.479244,105.533594 113.5,100.08 C70.7,101.88 59.7,146.48 59.7,172.61 C59.7,246.49 127.79,253.98 142.46,253.98 C150.37,253.98 162.3,251.68 169.46,249.42 L170.77,248.98 C198.322441,239.454907 221.81108,220.833284 237.37,196.18 C238.35034,194.635432 238.15787,192.622612 236.902583,191.291819 C235.647296,189.961026 233.649134,189.651447 232.05,190.54 Z" id="Path" fill="#DFDFDF"></path>
            <path d="M106.71,241.42 C97.7906321,235.884023 90.060815,228.630096 83.97,220.08 C69.9175408,200.827191 65.0926072,176.348006 70.7882631,153.202774 C76.483919,130.057542 92.1177687,110.612922 113.5,100.08 C116.62,98.61 121.95,95.95 129.04,96.08 C139.166007,96.1537266 148.673284,100.964727 154.73,109.08 C158.768231,114.471831 160.994721,121.004268 161.09,127.74 C161.09,127.53 185.55,48.14 81.09,48.14 C37.19,48.14 1.09,89.8 1.09,126.35 C0.916839297,145.684465 5.05373331,164.814611 13.2,182.35 C40.7576487,241.148146 107.976763,269.995024 169.58,249.46 C148.490975,256.109245 125.547537,253.185583 106.8,241.46 L106.71,241.42 Z" id="Path" fill="#E3E3E3"></path>
            <path d="M106.71,241.42 C97.7906321,235.884023 90.060815,228.630096 83.97,220.08 C69.9175408,200.827191 65.0926072,176.348006 70.7882631,153.202774 C76.483919,130.057542 92.1177687,110.612922 113.5,100.08 C116.62,98.61 121.95,95.95 129.04,96.08 C139.166007,96.1537266 148.673284,100.964727 154.73,109.08 C158.768231,114.471831 160.994721,121.004268 161.09,127.74 C161.09,127.53 185.55,48.14 81.09,48.14 C37.19,48.14 1.09,89.8 1.09,126.35 C0.916839297,145.684465 5.05373331,164.814611 13.2,182.35 C40.7576487,241.148146 107.976763,269.995024 169.58,249.46 C148.490975,256.109245 125.547537,253.185583 106.8,241.46 L106.71,241.42 Z" id="Path" fill="#FFFFFF" opacity="0.41"></path>
            <path d="M153.31,148.86 C152.5,149.91 150.01,151.36 150.01,154.52 C150.01,157.13 151.71,159.64 154.73,161.75 C169.11,171.75 196.22,170.43 196.29,170.43 C206.945258,170.404428 217.398558,167.520878 226.56,162.08 C245.365684,151.099428 256.945385,130.976701 256.99,109.2 C257.25,86.79 248.99,71.89 245.65,65.29 C224.46,23.84 178.72,0 128.98,0 C58.9845711,-0.00692127216 1.96431038,56.2114921 0.98,126.2 C1.46,89.66 37.78,60.15 80.98,60.15 C84.48,60.15 104.44,60.49 122.98,70.22 C139.32,78.8 147.88,89.16 153.83,99.43 C160.01,110.1 161.11,123.58 161.11,128.95 C161.11,134.32 158.37,142.28 153.31,148.86 Z" id="Path" fill="#FFFFFF"></path>
            <path d="M153.31,148.86 C152.5,149.91 150.01,151.36 150.01,154.52 C150.01,157.13 151.71,159.64 154.73,161.75 C169.11,171.75 196.22,170.43 196.29,170.43 C206.945258,170.404428 217.398558,167.520878 226.56,162.08 C245.365684,151.099428 256.945385,130.976701 256.99,109.2 C257.25,86.79 248.99,71.89 245.65,65.29 C224.46,23.84 178.72,0 128.98,0 C58.9845711,-0.00692127216 1.96431038,56.2114921 0.98,126.2 C1.46,89.66 37.78,60.15 80.98,60.15 C84.48,60.15 104.44,60.49 122.98,70.22 C139.32,78.8 147.88,89.16 153.83,99.43 C160.01,110.1 161.11,123.58 161.11,128.95 C161.11,134.32 158.37,142.28 153.31,148.86 Z" id="Path" fill="#FFFFFF"></path>
        </g>
    </g>
</svg>