<?xml version="1.0" ?><!DOCTYPE svg  PUBLIC '-//W3C//DTD SVG 1.0//EN'  'http://www.w3.org/TR/2001/REC-SVG-20010904/DTD/svg10.dtd'><svg enable-background="new 0 0 32 32" height="32px" id="Layer_1" version="1.0" viewBox="0 0 32 32" width="32px" xml:space="preserve" xmlns="http://www.w3.org/2000/svg" xmlns:xlink="http://www.w3.org/1999/xlink"><g><path d="M32,11.105c0,0.396-0.031,1.168-0.094,2.315c-0.063,1.146-0.198,2.273-0.406,3.379   c-0.209,1.105-0.594,2.346-1.156,3.723c-0.563,1.376-1.25,2.618-2.063,3.723c-0.812,1.104-1.927,2.148-3.343,3.128   c-1.417,0.979-3.021,1.68-4.812,2.096c-0.959,0.251-1.938,0.396-2.938,0.438c-0.041,0-0.124,0.021-0.249,0.062   c-0.835,0.041-1.667,0.041-2.5,0c-5.167-0.416-9.104-2.961-11.812-7.633c-1.25-2.212-1.96-4.317-2.125-6.319   c-0.125,0.584-0.21,1.085-0.25,1.501c-0.125-2.377,0.062-4.316,0.562-5.818C0.438,12.326,0.165,12.909,0,13.452   c0.333-1.877,0.771-3.358,1.312-4.442c0.04-0.25,0.29-0.71,0.75-1.376c0-0.084,0-0.146,0-0.188   C1.978,6.277,2.094,5.224,2.406,4.286s0.571-1.523,0.781-1.752c0.208-0.229,0.375-0.406,0.5-0.531   C3.728,3.003,4.25,3.962,5.25,4.88C5.5,4.921,5.728,4.943,5.938,4.943c1.04-0.209,2.125-0.188,3.25,0.062   c0.665-0.835,1.688-1.398,3.062-1.689l1.188-0.062c-1.21,0.709-1.938,1.73-2.188,3.065c0.458,0.959,1.062,1.439,1.812,1.439   c0.625,0,1.083,0,1.375,0c0.708,0,1.083,0.062,1.125,0.188v0.062v0.062c0.04,0.041,0.04,0.104,0,0.188v0.062v0.062   c-0.042,0.417-0.188,0.729-0.438,0.939c-0.042,0-0.062,0.01-0.062,0.031c0,0.021-0.022,0.031-0.062,0.031   c0,0.041-0.188,0.166-0.562,0.375c-0.5,0.333-0.897,0.604-1.188,0.813c-0.542,0.333-0.812,0.562-0.812,0.688v0.062h-0.062   c0.125,0.25,0.208,0.562,0.25,0.938c0.083,0.375,0.103,0.604,0.062,0.688c0,0.209,0,0.396,0,0.563c-0.5-0.25-0.979-0.417-1.438-0.5   c-0.585,0.25-0.917,0.521-1,0.812c-0.042,0.167-0.085,0.334-0.125,0.501c0,0.792,0.562,1.523,1.688,2.189   c0.458,0.292,0.927,0.46,1.406,0.501c0.478,0.042,0.853,0.021,1.125-0.062c0.271-0.084,0.603-0.209,1-0.376   c0.396-0.166,0.677-0.271,0.844-0.312c1.25-0.334,2.271-0.041,3.062,0.876c0.251,0.25,0.303,0.491,0.157,0.72   c-0.146,0.229-0.365,0.303-0.657,0.219c-0.124,0.041-0.208,0.053-0.249,0.031c-0.042-0.021-0.136,0-0.282,0.062   c-0.146,0.062-0.249,0.104-0.312,0.125c-0.063,0.021-0.167,0.084-0.312,0.188c-0.146,0.105-0.261,0.179-0.345,0.22   c-0.083,0.041-0.218,0.135-0.406,0.281c-0.188,0.146-0.343,0.24-0.468,0.281c-0.5,0.376-1.219,0.647-2.156,0.813   s-1.719,0.166-2.344,0c0.5,0.376,0.896,0.647,1.188,0.813c0.29,0.167,0.771,0.429,1.438,0.782c0.665,0.354,1.239,0.585,1.719,0.688   c0.478,0.104,1.083,0.156,1.812,0.156c0.729,0,1.396-0.125,2-0.376c0.604-0.25,1.249-0.677,1.938-1.282   c0.687-0.604,1.343-1.365,1.969-2.283c0.125-0.21,0.208-0.335,0.249-0.376c0.084,0-0.021,0.563-0.312,1.689   c-0.125,0.585-0.166,0.876-0.125,0.876c0.709-0.501,1.198-1.461,1.469-2.878c0.271-1.418,0.303-2.794,0.094-4.13   c0.5,0.209,0.854,0.604,1.062,1.189l0.126,0.125c0.249-0.793,0.396-1.825,0.438-3.098c0.041-1.272-0.084-2.325-0.375-3.159   c0.541,0.166,1.041,0.709,1.5,1.627c-0.125-0.668-0.313-1.283-0.562-1.846c-0.251-0.563-0.531-1.043-0.845-1.439   c-0.312-0.396-0.646-0.772-1-1.126c-0.354-0.354-0.718-0.647-1.093-0.876c-0.376-0.229-0.74-0.438-1.094-0.626   c-0.354-0.188-0.688-0.334-1-0.438c-0.313-0.104-0.595-0.188-0.844-0.25c-0.251-0.062-0.438-0.105-0.562-0.126   c-0.125-0.021-0.167-0.031-0.125-0.031c1.041-0.292,2.104-0.438,3.188-0.438C24,3.044,23.76,2.856,23.406,2.69   c-0.354-0.167-0.74-0.312-1.157-0.438c-0.416-0.125-0.822-0.229-1.218-0.312c-0.396-0.085-0.865-0.188-1.406-0.313h-0.062h0.124   c1.167-0.334,3-0.084,5.5,0.751c0.917,0.291,1.751,0.823,2.5,1.596c0.751,0.771,1.22,1.345,1.407,1.721   c0.187,0.375,0.322,0.688,0.406,0.938V6.381c0.041-0.209,0.01-0.531-0.094-0.97c-0.104-0.438-0.261-0.907-0.469-1.407   c0.041,0,0.104,0.031,0.188,0.094c0.083,0.062,0.239,0.291,0.469,0.688c0.229,0.396,0.489,0.97,0.78,1.72   c0.459,1.127,0.854,3.149,1.188,6.069l0.375-2.378C31.979,10.407,32,10.708,32,11.105z" fill="#ffffff"/></g><g/><g/><g/><g/><g/><g/></svg>